<mxfile host="app.diagrams.net" modified="2024-05-29T16:34:27.465Z" agent="Mozilla/5.0 (Windows NT 10.0; Win64; x64) AppleWebKit/537.36 (KHTML, like Gecko) Chrome/125.0.0.0 Safari/537.36" etag="leNW5hwmnQgD3k1lxw0Q" version="24.4.9" type="device">
  <diagram name="PÃ¡gina-1" id="VqOlYTIIc93JdkDsd_7b">
    <mxGraphModel dx="2261" dy="756" grid="1" gridSize="10" guides="1" tooltips="1" connect="1" arrows="1" fold="1" page="1" pageScale="1" pageWidth="827" pageHeight="1169" math="0" shadow="0">
      <root>
        <mxCell id="0" />
        <mxCell id="1" parent="0" />
        <mxCell id="ElyzcqEo_2gi25kaolpd-2" value="" style="rounded=0;whiteSpace=wrap;html=1;" vertex="1" parent="1">
          <mxGeometry x="-80" y="30" width="930" height="610" as="geometry" />
        </mxCell>
        <mxCell id="ElyzcqEo_2gi25kaolpd-8" style="edgeStyle=orthogonalEdgeStyle;rounded=0;orthogonalLoop=1;jettySize=auto;html=1;" edge="1" parent="1" source="ElyzcqEo_2gi25kaolpd-1" target="ElyzcqEo_2gi25kaolpd-3">
          <mxGeometry relative="1" as="geometry" />
        </mxCell>
        <mxCell id="ElyzcqEo_2gi25kaolpd-10" style="edgeStyle=orthogonalEdgeStyle;rounded=0;orthogonalLoop=1;jettySize=auto;html=1;" edge="1" parent="1" source="ElyzcqEo_2gi25kaolpd-1" target="ElyzcqEo_2gi25kaolpd-5">
          <mxGeometry relative="1" as="geometry" />
        </mxCell>
        <mxCell id="ElyzcqEo_2gi25kaolpd-1" value="&lt;b&gt;&lt;font style=&quot;font-size: 50px;&quot;&gt;20&lt;/font&gt;&lt;/b&gt;" style="ellipse;whiteSpace=wrap;html=1;" vertex="1" parent="1">
          <mxGeometry x="360" y="110" width="120" height="110" as="geometry" />
        </mxCell>
        <mxCell id="ElyzcqEo_2gi25kaolpd-9" style="edgeStyle=orthogonalEdgeStyle;rounded=0;orthogonalLoop=1;jettySize=auto;html=1;" edge="1" parent="1" source="ElyzcqEo_2gi25kaolpd-3" target="ElyzcqEo_2gi25kaolpd-4">
          <mxGeometry relative="1" as="geometry" />
        </mxCell>
        <mxCell id="ElyzcqEo_2gi25kaolpd-3" value="&lt;b&gt;&lt;font style=&quot;font-size: 50px;&quot;&gt;10&lt;/font&gt;&lt;/b&gt;" style="ellipse;whiteSpace=wrap;html=1;" vertex="1" parent="1">
          <mxGeometry x="130" y="270" width="120" height="110" as="geometry" />
        </mxCell>
        <mxCell id="ElyzcqEo_2gi25kaolpd-4" value="&lt;b&gt;&lt;font style=&quot;font-size: 50px;&quot;&gt;9&lt;/font&gt;&lt;/b&gt;" style="ellipse;whiteSpace=wrap;html=1;" vertex="1" parent="1">
          <mxGeometry x="-10" y="430" width="120" height="110" as="geometry" />
        </mxCell>
        <mxCell id="ElyzcqEo_2gi25kaolpd-12" value="" style="edgeStyle=orthogonalEdgeStyle;rounded=0;orthogonalLoop=1;jettySize=auto;html=1;" edge="1" parent="1" source="ElyzcqEo_2gi25kaolpd-5" target="ElyzcqEo_2gi25kaolpd-6">
          <mxGeometry relative="1" as="geometry" />
        </mxCell>
        <mxCell id="ElyzcqEo_2gi25kaolpd-5" value="&lt;b&gt;&lt;font style=&quot;font-size: 50px;&quot;&gt;30&lt;/font&gt;&lt;/b&gt;" style="ellipse;whiteSpace=wrap;html=1;" vertex="1" parent="1">
          <mxGeometry x="550" y="220" width="120" height="110" as="geometry" />
        </mxCell>
        <mxCell id="ElyzcqEo_2gi25kaolpd-6" value="&lt;b&gt;&lt;font style=&quot;font-size: 50px;&quot;&gt;25&lt;/font&gt;&lt;/b&gt;" style="ellipse;whiteSpace=wrap;html=1;" vertex="1" parent="1">
          <mxGeometry x="430" y="440" width="120" height="110" as="geometry" />
        </mxCell>
      </root>
    </mxGraphModel>
  </diagram>
</mxfile>
